<svg width="153" height="14" viewBox="0 0 153 14" fill="none" xmlns="http://www.w3.org/2000/svg">
<path d="M8.684 7.798H5.552V10.858H3.23V7.798H0.116V5.602H3.23V2.542H5.552V5.602H8.684V7.798ZM20.1656 0.399999V2.29L15.4856 13H12.3176L16.8356 2.776H12.6596V4.828H10.0676V0.399999H20.1656ZM30.9894 0.184C32.7534 0.184 34.1334 0.724 35.1294 1.804C36.1254 2.872 36.6234 4.414 36.6234 6.43C36.6234 7.858 36.3534 9.082 35.8134 10.102C35.2854 11.122 34.5354 11.896 33.5634 12.424C32.5914 12.952 31.4694 13.216 30.1974 13.216C29.5254 13.216 28.8834 13.144 28.2714 13C27.6594 12.844 27.1374 12.628 26.7054 12.352L27.7854 10.21C28.3974 10.63 29.1834 10.84 30.1434 10.84C31.2114 10.84 32.0574 10.528 32.6814 9.904C33.3054 9.268 33.6414 8.356 33.6894 7.168C32.9334 7.924 31.8894 8.302 30.5574 8.302C29.7534 8.302 29.0214 8.14 28.3614 7.816C27.7014 7.492 27.1794 7.036 26.7954 6.448C26.4114 5.848 26.2194 5.158 26.2194 4.378C26.2194 3.538 26.4294 2.8 26.8494 2.164C27.2694 1.528 27.8394 1.042 28.5594 0.705999C29.2914 0.358 30.1014 0.184 30.9894 0.184ZM31.2054 6.124C31.8414 6.124 32.3574 5.95 32.7534 5.602C33.1614 5.242 33.3654 4.786 33.3654 4.234C33.3654 3.682 33.1674 3.232 32.7714 2.884C32.3874 2.536 31.8534 2.362 31.1694 2.362C30.5454 2.362 30.0354 2.53 29.6394 2.866C29.2554 3.202 29.0634 3.658 29.0634 4.234C29.0634 4.81 29.2554 5.272 29.6394 5.62C30.0354 5.956 30.5574 6.124 31.2054 6.124ZM42.7768 0.399999V13H39.8608V2.74H37.3408V0.399999H42.7768ZM50.8517 5.53C51.9557 5.71 52.8017 6.124 53.3897 6.772C53.9777 7.408 54.2717 8.2 54.2717 9.148C54.2717 9.88 54.0797 10.558 53.6957 11.182C53.3117 11.794 52.7237 12.286 51.9317 12.658C51.1517 13.03 50.1917 13.216 49.0517 13.216C48.1637 13.216 47.2877 13.102 46.4237 12.874C45.5717 12.634 44.8457 12.298 44.2457 11.866L45.3797 9.634C45.8597 9.994 46.4117 10.276 47.0357 10.48C47.6717 10.672 48.3197 10.768 48.9797 10.768C49.7117 10.768 50.2877 10.63 50.7077 10.354C51.1277 10.066 51.3377 9.664 51.3377 9.148C51.3377 8.116 50.5517 7.6 48.9797 7.6H47.6477V5.674L50.2397 2.74H44.8757V0.399999H53.6957V2.29L50.8517 5.53ZM65.1437 0.184C66.9077 0.184 68.2877 0.724 69.2837 1.804C70.2797 2.872 70.7777 4.414 70.7777 6.43C70.7777 7.858 70.5077 9.082 69.9677 10.102C69.4397 11.122 68.6897 11.896 67.7177 12.424C66.7457 12.952 65.6237 13.216 64.3517 13.216C63.6797 13.216 63.0377 13.144 62.4257 13C61.8137 12.844 61.2917 12.628 60.8597 12.352L61.9397 10.21C62.5517 10.63 63.3377 10.84 64.2977 10.84C65.3657 10.84 66.2117 10.528 66.8357 9.904C67.4597 9.268 67.7957 8.356 67.8437 7.168C67.0877 7.924 66.0437 8.302 64.7117 8.302C63.9077 8.302 63.1757 8.14 62.5157 7.816C61.8557 7.492 61.3337 7.036 60.9497 6.448C60.5657 5.848 60.3737 5.158 60.3737 4.378C60.3737 3.538 60.5837 2.8 61.0037 2.164C61.4237 1.528 61.9937 1.042 62.7137 0.705999C63.4457 0.358 64.2557 0.184 65.1437 0.184ZM65.3597 6.124C65.9957 6.124 66.5117 5.95 66.9077 5.602C67.3157 5.242 67.5197 4.786 67.5197 4.234C67.5197 3.682 67.3217 3.232 66.9257 2.884C66.5417 2.536 66.0077 2.362 65.3237 2.362C64.6997 2.362 64.1897 2.53 63.7937 2.866C63.4097 3.202 63.2177 3.658 63.2177 4.234C63.2177 4.81 63.4097 5.272 63.7937 5.62C64.1897 5.956 64.7117 6.124 65.3597 6.124ZM81.9703 0.399999V2.29L77.2903 13H74.1223L78.6403 2.776H74.4643V4.828H71.8723V0.399999H81.9703ZM93.6287 10.354H91.5767V13H88.7327V10.354H81.9467V8.392L87.8867 0.399999H90.9467L85.4387 7.978H88.8227V5.62H91.5767V7.978H93.6287V10.354ZM94.9106 6.808H100.005V9.058H94.9106V6.808ZM111.308 0.399999V2.29L106.628 13H103.46L107.978 2.776H103.802V4.828H101.21V0.399999H111.308ZM122.02 10.624V13H112.498V11.11L117.358 6.52C117.874 6.028 118.222 5.608 118.402 5.26C118.582 4.9 118.672 4.546 118.672 4.198C118.672 3.694 118.498 3.31 118.15 3.046C117.814 2.77 117.316 2.632 116.656 2.632C116.104 2.632 115.606 2.74 115.162 2.956C114.718 3.16 114.346 3.472 114.046 3.892L111.922 2.524C112.414 1.792 113.092 1.222 113.956 0.813999C114.82 0.394 115.81 0.184 116.926 0.184C117.862 0.184 118.678 0.34 119.374 0.651999C120.082 0.952 120.628 1.384 121.012 1.948C121.408 2.5 121.606 3.154 121.606 3.91C121.606 4.594 121.462 5.236 121.174 5.836C120.886 6.436 120.328 7.12 119.5 7.888L116.602 10.624H122.02ZM123.387 6.808H128.481V9.058H123.387V6.808ZM138.719 6.376C139.343 6.688 139.817 7.096 140.141 7.6C140.477 8.104 140.645 8.686 140.645 9.346C140.645 10.126 140.423 10.81 139.979 11.398C139.535 11.974 138.911 12.424 138.107 12.748C137.303 13.06 136.373 13.216 135.317 13.216C134.261 13.216 133.331 13.06 132.527 12.748C131.735 12.424 131.117 11.974 130.673 11.398C130.241 10.81 130.025 10.126 130.025 9.346C130.025 8.686 130.187 8.104 130.511 7.6C130.847 7.096 131.321 6.688 131.933 6.376C131.465 6.088 131.105 5.728 130.853 5.296C130.601 4.852 130.475 4.348 130.475 3.784C130.475 3.052 130.679 2.416 131.087 1.876C131.495 1.336 132.065 0.921999 132.797 0.633999C133.529 0.334 134.369 0.184 135.317 0.184C136.277 0.184 137.123 0.334 137.855 0.633999C138.599 0.921999 139.175 1.336 139.583 1.876C139.991 2.416 140.195 3.052 140.195 3.784C140.195 4.348 140.069 4.852 139.817 5.296C139.565 5.728 139.199 6.088 138.719 6.376ZM135.317 2.326C134.729 2.326 134.255 2.47 133.895 2.758C133.547 3.034 133.373 3.418 133.373 3.91C133.373 4.39 133.547 4.768 133.895 5.044C134.243 5.32 134.717 5.458 135.317 5.458C135.917 5.458 136.397 5.32 136.757 5.044C137.117 4.768 137.297 4.39 137.297 3.91C137.297 3.418 137.117 3.034 136.757 2.758C136.397 2.47 135.917 2.326 135.317 2.326ZM135.317 11.074C136.049 11.074 136.625 10.912 137.045 10.588C137.477 10.252 137.693 9.808 137.693 9.256C137.693 8.704 137.477 8.266 137.045 7.942C136.625 7.618 136.049 7.456 135.317 7.456C134.597 7.456 134.027 7.618 133.607 7.942C133.187 8.266 132.977 8.704 132.977 9.256C132.977 9.82 133.187 10.264 133.607 10.588C134.027 10.912 134.597 11.074 135.317 11.074ZM148.045 5.098C148.849 5.098 149.581 5.26 150.241 5.584C150.901 5.908 151.423 6.37 151.807 6.97C152.191 7.558 152.383 8.242 152.383 9.022C152.383 9.862 152.173 10.6 151.753 11.236C151.333 11.872 150.757 12.364 150.025 12.712C149.305 13.048 148.501 13.216 147.613 13.216C145.849 13.216 144.469 12.676 143.473 11.596C142.477 10.516 141.979 8.974 141.979 6.97C141.979 5.542 142.249 4.318 142.789 3.298C143.329 2.278 144.079 1.504 145.039 0.975999C146.011 0.448 147.133 0.184 148.405 0.184C149.077 0.184 149.719 0.261999 150.331 0.417999C150.955 0.561999 151.483 0.771999 151.915 1.048L150.835 3.19C150.211 2.77 149.425 2.56 148.477 2.56C147.409 2.56 146.563 2.872 145.939 3.496C145.315 4.12 144.979 5.026 144.931 6.214C145.675 5.47 146.713 5.098 148.045 5.098ZM147.451 11.038C148.075 11.038 148.579 10.87 148.963 10.534C149.359 10.198 149.557 9.742 149.557 9.166C149.557 8.59 149.359 8.134 148.963 7.798C148.579 7.45 148.063 7.276 147.415 7.276C146.779 7.276 146.257 7.456 145.849 7.816C145.441 8.164 145.237 8.614 145.237 9.166C145.237 9.718 145.435 10.168 145.831 10.516C146.227 10.864 146.767 11.038 147.451 11.038Z" fill="black"/>
</svg>
