<svg width="328" height="72" viewBox="0 0 328 72" fill="none" xmlns="http://www.w3.org/2000/svg">
<rect width="327.958" height="72" rx="36" fill="url(#paint0_linear_88_63)"/>
<path d="M89.2012 25V46H87.0112V26.92H73.7212V46H71.5312V25H89.2012ZM103.907 30.1C105.387 30.1 106.727 30.44 107.927 31.12C109.127 31.78 110.067 32.72 110.747 33.94C111.427 35.16 111.767 36.55 111.767 38.11C111.767 39.69 111.427 41.09 110.747 42.31C110.067 43.53 109.127 44.48 107.927 45.16C106.747 45.82 105.407 46.15 103.907 46.15C102.627 46.15 101.467 45.89 100.427 45.37C99.4071 44.83 98.5671 44.05 97.9071 43.03V51.82H95.7771V30.22H97.8171V33.34C98.4571 32.3 99.2971 31.5 100.337 30.94C101.397 30.38 102.587 30.1 103.907 30.1ZM103.757 44.26C104.857 44.26 105.857 44.01 106.757 43.51C107.657 42.99 108.357 42.26 108.857 41.32C109.377 40.38 109.637 39.31 109.637 38.11C109.637 36.91 109.377 35.85 108.857 34.93C108.357 33.99 107.657 33.26 106.757 32.74C105.857 32.22 104.857 31.96 103.757 31.96C102.637 31.96 101.627 32.22 100.727 32.74C99.8471 33.26 99.1471 33.99 98.6271 34.93C98.1271 35.85 97.8771 36.91 97.8771 38.11C97.8771 39.31 98.1271 40.38 98.6271 41.32C99.1471 42.26 99.8471 42.99 100.727 43.51C101.627 44.01 102.637 44.26 103.757 44.26ZM122.853 46.15C121.333 46.15 119.963 45.81 118.743 45.13C117.523 44.43 116.563 43.47 115.863 42.25C115.163 41.03 114.813 39.65 114.813 38.11C114.813 36.57 115.163 35.19 115.863 33.97C116.563 32.75 117.523 31.8 118.743 31.12C119.963 30.44 121.333 30.1 122.853 30.1C124.373 30.1 125.743 30.44 126.963 31.12C128.183 31.8 129.133 32.75 129.813 33.97C130.513 35.19 130.863 36.57 130.863 38.11C130.863 39.65 130.513 41.03 129.813 42.25C129.133 43.47 128.183 44.43 126.963 45.13C125.743 45.81 124.373 46.15 122.853 46.15ZM122.853 44.26C123.973 44.26 124.973 44.01 125.853 43.51C126.753 42.99 127.453 42.26 127.953 41.32C128.453 40.38 128.703 39.31 128.703 38.11C128.703 36.91 128.453 35.84 127.953 34.9C127.453 33.96 126.753 33.24 125.853 32.74C124.973 32.22 123.973 31.96 122.853 31.96C121.733 31.96 120.723 32.22 119.823 32.74C118.943 33.24 118.243 33.96 117.723 34.9C117.223 35.84 116.973 36.91 116.973 38.11C116.973 39.31 117.223 40.38 117.723 41.32C118.243 42.26 118.943 42.99 119.823 43.51C120.723 44.01 121.733 44.26 122.853 44.26ZM135.416 30.22H137.546V42.76L148.076 30.22H149.966V46H147.836V33.46L137.336 46H135.416V30.22ZM142.586 27.94C141.226 27.94 140.146 27.6 139.346 26.92C138.546 26.24 138.136 25.28 138.116 24.04H139.646C139.666 24.82 139.946 25.45 140.486 25.93C141.026 26.39 141.726 26.62 142.586 26.62C143.446 26.62 144.146 26.39 144.686 25.93C145.246 25.45 145.536 24.82 145.556 24.04H147.086C147.066 25.28 146.646 26.24 145.826 26.92C145.026 27.6 143.946 27.94 142.586 27.94ZM167.17 32.11H161.2V46H159.07V32.11H153.1V30.22H167.17V32.11ZM170.25 30.22H172.38V42.76L182.91 30.22H184.8V46H182.67V33.46L172.17 46H170.25V30.22ZM209.856 32.11H203.886V46H201.756V32.11H195.786V30.22H209.856V32.11ZM226.003 38.77H212.803C212.923 40.41 213.553 41.74 214.693 42.76C215.833 43.76 217.273 44.26 219.013 44.26C219.993 44.26 220.893 44.09 221.713 43.75C222.533 43.39 223.243 42.87 223.843 42.19L225.043 43.57C224.343 44.41 223.463 45.05 222.403 45.49C221.363 45.93 220.213 46.15 218.953 46.15C217.333 46.15 215.893 45.81 214.633 45.13C213.393 44.43 212.423 43.47 211.723 42.25C211.023 41.03 210.673 39.65 210.673 38.11C210.673 36.57 211.003 35.19 211.663 33.97C212.343 32.75 213.263 31.8 214.423 31.12C215.603 30.44 216.923 30.1 218.383 30.1C219.843 30.1 221.153 30.44 222.313 31.12C223.473 31.8 224.383 32.75 225.043 33.97C225.703 35.17 226.033 36.55 226.033 38.11L226.003 38.77ZM218.383 31.93C216.863 31.93 215.583 32.42 214.543 33.4C213.523 34.36 212.943 35.62 212.803 37.18H223.993C223.853 35.62 223.263 34.36 222.223 33.4C221.203 32.42 219.923 31.93 218.383 31.93ZM237.348 46.15C235.788 46.15 234.388 45.81 233.148 45.13C231.928 44.45 230.968 43.5 230.268 42.28C229.568 41.04 229.218 39.65 229.218 38.11C229.218 36.57 229.568 35.19 230.268 33.97C230.968 32.75 231.928 31.8 233.148 31.12C234.388 30.44 235.788 30.1 237.348 30.1C238.708 30.1 239.918 30.37 240.978 30.91C242.058 31.43 242.908 32.2 243.528 33.22L241.938 34.3C241.418 33.52 240.758 32.94 239.958 32.56C239.158 32.16 238.288 31.96 237.348 31.96C236.208 31.96 235.178 32.22 234.258 32.74C233.358 33.24 232.648 33.96 232.128 34.9C231.628 35.84 231.378 36.91 231.378 38.11C231.378 39.33 231.628 40.41 232.128 41.35C232.648 42.27 233.358 42.99 234.258 43.51C235.178 44.01 236.208 44.26 237.348 44.26C238.288 44.26 239.158 44.07 239.958 43.69C240.758 43.31 241.418 42.73 241.938 41.95L243.528 43.03C242.908 44.05 242.058 44.83 240.978 45.37C239.898 45.89 238.688 46.15 237.348 46.15ZM258.459 32.11H252.489V46H250.359V32.11H244.389V30.22H258.459V32.11Z" fill="white"/>
<defs>
<linearGradient id="paint0_linear_88_63" x1="120.984" y1="-1.21649e-05" x2="217.481" y2="71.988" gradientUnits="userSpaceOnUse">
<stop stop-color="#B51F1A"/>
<stop offset="1" stop-color="#F98EF6"/>
</linearGradient>
</defs>
</svg>
