<svg width="90" height="46" viewBox="0 0 90 46" fill="none" xmlns="http://www.w3.org/2000/svg">
<path d="M57.854 29.6032C58.01 29.6032 58.13 29.6752 58.214 29.8192C58.31 29.9632 58.358 30.1612 58.358 30.4132C58.358 30.8932 58.244 31.2652 58.016 31.5292C57.464 32.1652 56.894 32.6872 56.306 33.0952C55.73 33.5032 55.07 33.7072 54.326 33.7072C53.714 33.7072 53.252 33.5332 52.94 33.1852C52.628 32.8252 52.472 32.3092 52.472 31.6372C52.472 31.3012 52.556 30.7012 52.724 29.8372C52.88 29.0812 52.958 28.5592 52.958 28.2712C52.958 28.0792 52.892 27.9832 52.76 27.9832C52.604 27.9832 52.382 28.1872 52.094 28.5952C51.806 28.9912 51.518 29.5192 51.23 30.1792C50.942 30.8392 50.708 31.5352 50.528 32.2672C50.3 33.2272 49.736 33.7072 48.836 33.7072C48.476 33.7072 48.236 33.5812 48.116 33.3292C48.008 33.0652 47.954 32.5972 47.954 31.9252C47.954 31.5412 47.96 31.2352 47.972 31.0072L47.99 29.5672C47.99 27.7192 48.176 25.7932 48.548 23.7892C48.932 21.7852 49.49 20.1052 50.222 18.7492C50.966 17.3812 51.854 16.6972 52.886 16.6972C53.438 16.6972 53.882 16.9372 54.218 17.4172C54.566 17.8852 54.74 18.4972 54.74 19.2532C54.74 20.4652 54.386 21.7252 53.678 23.0332C52.97 24.3292 51.818 25.8472 50.222 27.5872C50.186 28.2112 50.168 28.8532 50.168 29.5132C50.564 28.4932 51.002 27.6652 51.482 27.0292C51.974 26.3812 52.454 25.9192 52.922 25.6432C53.402 25.3672 53.84 25.2292 54.236 25.2292C55.016 25.2292 55.406 25.6192 55.406 26.3992C55.406 26.8672 55.274 27.7132 55.01 28.9372C54.782 29.9812 54.668 30.6712 54.668 31.0072C54.668 31.4872 54.842 31.7272 55.19 31.7272C55.43 31.7272 55.712 31.5832 56.036 31.2952C56.372 30.9952 56.816 30.5152 57.368 29.8552C57.512 29.6872 57.674 29.6032 57.854 29.6032ZM52.508 18.4792C52.292 18.4792 52.052 18.7912 51.788 19.4152C51.524 20.0272 51.266 20.8612 51.014 21.9172C50.774 22.9612 50.576 24.1012 50.42 25.3372C51.164 24.4612 51.776 23.5072 52.256 22.4752C52.748 21.4432 52.994 20.5072 52.994 19.6672C52.994 19.2832 52.952 18.9892 52.868 18.7852C52.784 18.5812 52.664 18.4792 52.508 18.4792ZM64.9272 29.6032C65.0832 29.6032 65.2032 29.6752 65.2872 29.8192C65.3832 29.9632 65.4312 30.1612 65.4312 30.4132C65.4312 30.8932 65.3172 31.2652 65.0892 31.5292C64.5732 32.1652 64.0092 32.6872 63.3972 33.0952C62.7852 33.5032 62.0832 33.7072 61.2912 33.7072C58.8432 33.7072 57.6192 31.9852 57.6192 28.5412C57.6192 28.0132 57.6372 27.4792 57.6732 26.9392H56.9712C56.6112 26.9392 56.3652 26.8732 56.2332 26.7412C56.1132 26.6092 56.0532 26.3992 56.0532 26.1112C56.0532 25.4392 56.3232 25.1032 56.8632 25.1032H57.8892C58.0932 23.7832 58.4052 22.5772 58.8252 21.4852C59.2452 20.3932 59.7492 19.5232 60.3372 18.8752C60.9372 18.2272 61.5792 17.9032 62.2632 17.9032C62.7672 17.9032 63.1632 18.1252 63.4512 18.5692C63.7392 19.0132 63.8832 19.5712 63.8832 20.2432C63.8832 22.1032 63.1032 23.7232 61.5432 25.1032H63.5592C63.7512 25.1032 63.8892 25.1452 63.9732 25.2292C64.0572 25.3132 64.0992 25.4692 64.0992 25.6972C64.0992 26.5252 63.4212 26.9392 62.0652 26.9392H59.8692C59.8452 27.5392 59.8332 28.0072 59.8332 28.3432C59.8332 29.5912 59.9772 30.4672 60.2652 30.9712C60.5652 31.4752 61.0332 31.7272 61.6692 31.7272C62.1852 31.7272 62.6412 31.5712 63.0372 31.2592C63.4332 30.9472 63.9012 30.4792 64.4412 29.8552C64.5852 29.6872 64.7472 29.6032 64.9272 29.6032ZM61.7772 19.6312C61.5972 19.6312 61.3932 19.8592 61.1652 20.3152C60.9492 20.7592 60.7392 21.3832 60.5352 22.1872C60.3432 22.9792 60.1812 23.8612 60.0492 24.8332C60.7572 24.2212 61.2852 23.5372 61.6332 22.7812C61.9932 22.0132 62.1732 21.3172 62.1732 20.6932C62.1732 19.9852 62.0412 19.6312 61.7772 19.6312ZM65.2436 33.7072C64.7876 33.7072 64.4636 33.4672 64.2716 32.9872C64.0916 32.5072 64.0016 31.7392 64.0016 30.6832C64.0016 29.1232 64.2236 27.6412 64.6676 26.2372C64.7756 25.8892 64.9496 25.6372 65.1896 25.4812C65.4416 25.3132 65.7896 25.2292 66.2336 25.2292C66.4736 25.2292 66.6416 25.2592 66.7376 25.3192C66.8336 25.3792 66.8816 25.4932 66.8816 25.6612C66.8816 25.8532 66.7916 26.2852 66.6116 26.9572C66.4916 27.4372 66.3956 27.8572 66.3236 28.2172C66.2516 28.5652 66.1916 29.0032 66.1436 29.5312C66.4676 28.5952 66.8516 27.8032 67.2956 27.1552C67.7516 26.5072 68.2136 26.0272 68.6816 25.7152C69.1616 25.3912 69.6116 25.2292 70.0316 25.2292C70.4516 25.2292 70.7456 25.3252 70.9136 25.5172C71.0936 25.7092 71.1836 26.0032 71.1836 26.3992C71.1836 26.7832 71.0696 27.4792 70.8416 28.4872C70.7456 28.9192 70.6796 29.2432 70.6436 29.4592C71.2436 27.9832 71.9096 26.9092 72.6416 26.2372C73.3736 25.5652 74.0576 25.2292 74.6936 25.2292C75.4736 25.2292 75.8636 25.6192 75.8636 26.3992C75.8636 26.8672 75.7316 27.7132 75.4676 28.9372C75.2396 29.9812 75.1256 30.6712 75.1256 31.0072C75.1256 31.4872 75.2996 31.7272 75.6476 31.7272C75.8876 31.7272 76.1696 31.5832 76.4936 31.2952C76.8296 30.9952 77.2736 30.5152 77.8256 29.8552C77.9696 29.6872 78.1316 29.6032 78.3116 29.6032C78.4676 29.6032 78.5876 29.6752 78.6716 29.8192C78.7676 29.9632 78.8156 30.1612 78.8156 30.4132C78.8156 30.8932 78.7016 31.2652 78.4736 31.5292C77.9576 32.1652 77.3996 32.6872 76.7996 33.0952C76.2116 33.5032 75.5396 33.7072 74.7836 33.7072C74.1716 33.7072 73.7096 33.5332 73.3976 33.1852C73.0856 32.8252 72.9296 32.3092 72.9296 31.6372C72.9296 31.3012 73.0136 30.7012 73.1816 29.8372C73.3376 29.0812 73.4156 28.5592 73.4156 28.2712C73.4156 28.0792 73.3496 27.9832 73.2176 27.9832C73.0616 27.9832 72.8396 28.1872 72.5516 28.5952C72.2636 28.9912 71.9756 29.5192 71.6876 30.1792C71.3996 30.8392 71.1656 31.5352 70.9856 32.2672C70.8536 32.8432 70.6976 33.2272 70.5176 33.4192C70.3496 33.6112 70.0736 33.7072 69.6896 33.7072C69.2936 33.7072 68.9936 33.5212 68.7896 33.1492C68.5976 32.7652 68.5016 32.3032 68.5016 31.7632C68.5016 31.3072 68.5616 30.6472 68.6816 29.7832C68.7776 29.0152 68.8256 28.5112 68.8256 28.2712C68.8256 28.0792 68.7596 27.9832 68.6276 27.9832C68.4476 27.9832 68.2196 28.1992 67.9436 28.6312C67.6676 29.0632 67.3976 29.6152 67.1336 30.2872C66.8816 30.9592 66.6776 31.6192 66.5216 32.2672C66.3896 32.8312 66.2336 33.2152 66.0536 33.4192C65.8856 33.6112 65.6156 33.7072 65.2436 33.7072ZM82.5621 31.0792C82.6941 30.9592 82.8261 30.8992 82.9581 30.8992C83.1021 30.8992 83.2161 30.9832 83.3001 31.1512C83.3961 31.3072 83.4441 31.4992 83.4441 31.7272C83.4441 32.2312 83.2641 32.6332 82.9041 32.9332C82.2801 33.4492 81.5721 33.7072 80.7801 33.7072C79.6401 33.7072 78.8061 33.2332 78.2781 32.2852C77.7501 31.3252 77.4861 30.0772 77.4861 28.5412C77.4861 27.0772 77.6721 25.4092 78.0441 23.5372C78.4281 21.6652 78.9861 20.0572 79.7181 18.7132C80.4621 17.3692 81.3441 16.6972 82.3641 16.6972C82.9401 16.6972 83.3901 16.9672 83.7141 17.5072C84.0501 18.0352 84.2181 18.7972 84.2181 19.7932C84.2181 21.2212 83.8221 22.8772 83.0301 24.7612C82.2501 26.6452 81.1821 28.5052 79.8261 30.3412C79.9101 30.8332 80.0601 31.1872 80.2761 31.4032C80.4921 31.6192 80.7861 31.7272 81.1581 31.7272C81.3621 31.7272 81.5901 31.6672 81.8421 31.5472C82.1061 31.4272 82.3461 31.2712 82.5621 31.0792ZM81.9681 18.4792C81.6921 18.4792 81.3801 18.9772 81.0321 19.9732C80.6841 20.9692 80.3781 22.2052 80.1141 23.6812C79.8501 25.1572 79.7061 26.5732 79.6821 27.9292C80.5341 26.5252 81.2121 25.1212 81.7161 23.7172C82.2201 22.3012 82.4721 21.0112 82.4721 19.8472C82.4721 18.9352 82.3041 18.4792 81.9681 18.4792Z" fill="#74F724"/>
<path d="M0 12C0 5.37258 5.37258 0 12 0H34C40.6274 0 46 5.37258 46 12V34C46 40.6274 40.6274 46 34 46H19.5H16.5H13H12C5.37258 46 0 40.6274 0 34V12Z" fill="#333333"/>
<path d="M12.4258 8.73438V33.6172H9.12744V8.73438H12.4258ZM31.1904 30.7632L37.5137 35.7705L35.292 37.8213L29.0713 32.8823L31.1904 30.7632ZM37.4282 20.3896V21.9619C37.4282 23.8304 37.1947 25.5052 36.7275 26.9863C36.2604 28.4674 35.5882 29.7264 34.7109 30.7632C33.8337 31.8 32.7798 32.5918 31.5493 33.1387C30.3302 33.6855 28.9631 33.959 27.4478 33.959C25.978 33.959 24.6279 33.6855 23.3975 33.1387C22.1784 32.5918 21.1188 31.8 20.2188 30.7632C19.3301 29.7264 18.6408 28.4674 18.1509 26.9863C17.661 25.5052 17.416 23.8304 17.416 21.9619V20.3896C17.416 18.5212 17.6553 16.8521 18.1338 15.3823C18.6237 13.9012 19.313 12.6423 20.2017 11.6055C21.0903 10.5573 22.1442 9.75977 23.3633 9.21289C24.5938 8.66602 25.9438 8.39258 27.4136 8.39258C28.9289 8.39258 30.3018 8.66602 31.5322 9.21289C32.7627 9.75977 33.8166 10.5573 34.6938 11.6055C35.5711 12.6423 36.2433 13.9012 36.7104 15.3823C37.189 16.8521 37.4282 18.5212 37.4282 20.3896ZM34.1641 21.9619V20.3555C34.1641 18.8743 34.0103 17.5641 33.7026 16.4248C33.4064 15.2855 32.9678 14.3285 32.3867 13.5537C31.8057 12.779 31.0993 12.1922 30.2676 11.7935C29.4359 11.3947 28.4845 11.1953 27.4136 11.1953C26.3996 11.1953 25.4767 11.3947 24.645 11.7935C23.8247 12.1922 23.1183 12.779 22.5259 13.5537C21.9334 14.3285 21.4777 15.2855 21.1587 16.4248C20.8397 17.5641 20.6802 18.8743 20.6802 20.3555V21.9619C20.6802 23.4544 20.8397 24.776 21.1587 25.9268C21.4777 27.0661 21.9334 28.0288 22.5259 28.8149C23.1297 29.5897 23.8475 30.1764 24.6792 30.5752C25.5109 30.974 26.4338 31.1733 27.4478 31.1733C28.5187 31.1733 29.4701 30.974 30.3018 30.5752C31.1335 30.1764 31.8341 29.5897 32.4038 28.8149C32.9849 28.0288 33.4235 27.0661 33.7197 25.9268C34.016 24.776 34.1641 23.4544 34.1641 21.9619Z" fill="white"/>
</svg>
