<svg width="18" height="18" viewBox="0 0 18 18" fill="none" xmlns="http://www.w3.org/2000/svg">
<path d="M17.7383 14.7755V14.7716C17.7383 14.7716 14.3388 11.3756 14.3367 11.3739C14.0672 11.1042 13.6362 11.1101 13.371 11.3757L11.8063 12.9471C11.1979 13.5557 10.4135 13.0157 8.90789 11.7878C7.91172 10.9754 6.76557 9.88295 5.7718 8.6513C5.07439 7.78715 4.45767 6.87965 5.09478 6.2426C5.09643 6.24095 6.66598 4.67525 6.66568 4.6736L6.66688 4.6703C6.94854 4.3886 6.92125 3.95705 6.66403 3.6995V3.6956C6.66403 3.6956 3.16633 0.201798 3.16438 0.199698C2.89487 -0.0698518 2.46397 -0.0638518 2.19866 0.201498L0.622362 1.778C-0.0270541 2.59085 -1.47032 6.4649 4.71713 12.8081C11.2353 19.4907 15.4413 18.0612 16.1655 17.3072C16.1655 17.3072 17.7401 15.7509 17.7401 15.7494L17.7415 15.7463C18.0231 15.4644 17.9954 15.0332 17.7383 14.7755Z" fill="black"/>
</svg>
